<svg width="235" height="118" viewBox="0 0 235 118" fill="none" xmlns="http://www.w3.org/2000/svg">
<path d="M115.5 0L58.5 57L90 86L115.5 60L176 117.5H235L115.5 0Z" fill="url(#paint0_linear_618_6)"/>
<path d="M53 62.5L34.5 81H74L53 62.5Z" fill="url(#paint1_linear_618_6)"/>
<path d="M29.5 86L17 99H92L78.5 86H29.5Z" fill="url(#paint2_linear_618_6)"/>
<path d="M0 117.5L12 104.5H96.5L110 117.5H0Z" fill="url(#paint3_linear_618_6)"/>
<path d="M91 69L77 56L115.5 17.5L199 101.5H176L115.5 42.5L91 69Z" fill="black" fill-opacity="0.05"/>
<defs>
<linearGradient id="paint0_linear_618_6" x1="117.5" y1="0" x2="161.5" y2="131" gradientUnits="userSpaceOnUse">
<stop stop-color="#6BBF54"/>
<stop offset="0.421875" stop-color="#A6C74E"/>
<stop offset="1" stop-color="#6BBF54"/>
</linearGradient>
<linearGradient id="paint1_linear_618_6" x1="117.5" y1="0" x2="161.5" y2="131" gradientUnits="userSpaceOnUse">
<stop stop-color="#6BBF54"/>
<stop offset="0.421875" stop-color="#A6C74E"/>
<stop offset="1" stop-color="#6BBF54"/>
</linearGradient>
<linearGradient id="paint2_linear_618_6" x1="117.5" y1="0" x2="161.5" y2="131" gradientUnits="userSpaceOnUse">
<stop stop-color="#6BBF54"/>
<stop offset="0.421875" stop-color="#A6C74E"/>
<stop offset="1" stop-color="#6BBF54"/>
</linearGradient>
<linearGradient id="paint3_linear_618_6" x1="117.5" y1="0" x2="161.5" y2="131" gradientUnits="userSpaceOnUse">
<stop stop-color="#6BBF54"/>
<stop offset="0.421875" stop-color="#A6C74E"/>
<stop offset="1" stop-color="#6BBF54"/>
</linearGradient>
</defs>
</svg>
