<svg width="24" height="24" viewBox="0 0 24 24" fill="none" xmlns="http://www.w3.org/2000/svg">
<path d="M6.53483 3H20.9988C21.2641 3 21.5184 3.10536 21.7059 3.29289C21.8935 3.48043 21.9988 3.73478 21.9988 4V20C21.9988 20.2652 21.8935 20.5196 21.7059 20.7071C21.5184 20.8946 21.2641 21 20.9988 21H6.53483C6.37007 21.0002 6.20782 20.9597 6.06249 20.882C5.91717 20.8044 5.79328 20.6921 5.70183 20.555L0.368833 12.555C0.259194 12.3907 0.200684 12.1975 0.200684 12C0.200684 11.8025 0.259194 11.6093 0.368833 11.445L5.70183 3.445C5.79328 3.30794 5.91717 3.1956 6.06249 3.11797C6.20782 3.04034 6.37007 2.99981 6.53483 3ZM7.06983 5L2.40283 12L7.06983 19H19.9998V5H7.06983ZM12.9998 10.586L15.8278 7.757L17.2418 9.172L14.4128 12L17.2418 14.828L15.8278 16.243L12.9988 13.414L10.1708 16.243L8.75683 14.828L11.5848 12L8.75683 9.172L10.1708 7.757L12.9988 10.586H12.9998Z" fill="white"/>
</svg>
