<svg width="19" height="19" viewBox="0 0 19 19" fill="none" xmlns="http://www.w3.org/2000/svg">
<path d="M2.375 13.6562V16.625H5.34375L14.0996 7.86915L11.1308 4.9004L2.375 13.6562ZM16.3954 5.57332C16.4688 5.50008 16.527 5.41308 16.5668 5.31731C16.6065 5.22154 16.6269 5.11887 16.6269 5.01519C16.6269 4.91151 16.6065 4.80884 16.5668 4.71307C16.527 4.6173 16.4688 4.53031 16.3954 4.45707L14.5429 2.60457C14.4697 2.53117 14.3827 2.47295 14.2869 2.43322C14.1911 2.3935 14.0885 2.37305 13.9848 2.37305C13.8811 2.37305 13.7784 2.3935 13.6827 2.43322C13.5869 2.47295 13.4999 2.53117 13.4267 2.60457L11.9779 4.05331L14.9467 7.02206L16.3954 5.57332Z" fill="#6BBF54"/>
</svg>
