<svg width="54" height="54" viewBox="0 0 54 54" fill="none" xmlns="http://www.w3.org/2000/svg">
<path d="M2 18.0537L2.27473 27.1022L8.22711 31.7723L9.41758 30.8967L10.4249 33.3777L14.5458 36.0047M2 18.0537L14.5458 26.5184M2 18.0537L39.3626 2L52 6.37828M14.5458 36.0047V26.5184M14.5458 36.0047L51.7253 13.9673L52 6.37828M14.5458 26.5184L52 6.37828" stroke="white" stroke-width="2"/>
<path d="M6.5 30.5L4.56445 33.3193M4.56445 33.3193V42.0758L28.0993 51.9999M4.56445 33.3193L28.0993 42.9515M28.0993 51.9999L50.8099 21.6438V15.0764L28.0993 42.9515M28.0993 51.9999V42.9515" stroke="white" stroke-width="2"/>
</svg>
