<svg width="52" height="51" viewBox="0 0 52 51" fill="none" xmlns="http://www.w3.org/2000/svg">
<path d="M31.3468 43.4307L32.8194 41.6951C34.4396 39.7855 37.2501 39.43 39.2948 40.8759V40.8759M31.3468 43.4307L38.5723 4.0146M31.3468 43.4307L28.1676 40.8759M20.3642 43.4307L22.2517 41.3451C23.7884 39.6471 26.3824 39.4414 28.1676 40.8759V40.8759M20.3642 43.4307L31.3468 4.74453M20.3642 43.4307L17.3295 40.8759M10.2486 43.4307L11.8321 41.431C13.1801 39.7288 15.6684 39.4775 17.3295 40.8759V40.8759M10.2486 43.4307L25.5665 5.47445M10.2486 43.4307L7.35838 40.8759M25.5665 5.47445V5.47445C26.7897 3.54362 29.4352 3.1352 31.1837 4.60724L31.3468 4.74453M25.5665 5.47445L25.3944 5.33618C23.7979 4.05328 21.4382 4.46055 20.3642 6.20438V6.20438L0.999999 43.4307L2.3018 41.5128C3.4509 39.8199 5.82539 39.5208 7.35838 40.8759V40.8759M31.3468 4.74453V4.74453C32.8064 2.69664 35.6112 2.145 37.7376 3.48758L38.5723 4.0146M38.5723 4.0146L38.7363 3.85187C41.0084 1.59749 44.5363 1.2109 47.2428 2.91971V2.91971L46.8913 6.20438M37.4162 49.2701L38.3206 48.9225C41.9346 47.5336 45.9922 47.933 49.2659 50V50L51 6.20438V6.20438C49.846 5.16354 48.096 5.15032 46.9264 6.17362L46.8913 6.20438M37.4162 49.2701L36.8046 48.9391C33.3382 47.0631 29.2281 46.7844 25.5402 48.1752V48.1752M37.4162 49.2701L39.2948 40.8759M14.2948 48.1752L14.3538 48.1438C17.7129 46.3578 21.7716 46.5091 24.9884 48.5401V48.5401L25.5402 48.1752M14.2948 48.1752L14.0715 47.9927C11.2036 45.6494 7.24805 45.1531 3.89017 46.7153V46.7153L7.35838 40.8759M14.2948 48.1752L17.3295 40.8759M46.8913 6.20438L42.9075 43.4307L39.2948 40.8759M25.5402 48.1752L28.1676 40.8759" stroke="white" stroke-width="2"/>
</svg>
