<svg width="52" height="54" viewBox="0 0 52 54" fill="none" xmlns="http://www.w3.org/2000/svg">
<path d="M31.5953 5.38977L26.2129 7.08469L31.0288 12.1694L36.8361 10.0508L31.5953 5.38977Z" stroke="white" stroke-width="2"/>
<path d="M1 12.5932V24.8814L5.24929 29.575M1 12.5932L10.2068 21.4915M1 12.5932L35.5609 2L46.4674 8.77966M10.2068 35.0508V21.4915M10.2068 35.0508L9.43957 34.2034M10.2068 35.0508L16.864 32.5614M10.2068 21.4915L46.4674 8.77966M46.4674 8.77966V18.7373M5.24929 29.575V41.6186L9.2153 52M5.24929 29.575L9.43957 34.2034M9.2153 52L9.43957 34.2034M9.2153 52L50.8584 42.8898V26.1525L16.864 32.5614M16.864 32.5614L46.4674 21.4915V18.7373M46.4674 18.7373L51 26.1525" stroke="white" stroke-width="2"/>
<path d="M15.1647 10.2627L9.78223 11.9576L14.5981 17.0424L20.4055 14.9237L15.1647 10.2627Z" stroke="white" stroke-width="2"/>
<path d="M23.3795 7.93213L17.9971 9.62704L22.8129 14.7118L28.6203 12.5931L23.3795 7.93213Z" stroke="white" stroke-width="2"/>
</svg>
