<svg width="54" height="54" viewBox="0 0 54 54" fill="none" xmlns="http://www.w3.org/2000/svg">
<path d="M5.14961 8.67235L10.0808 2M5.14961 8.67235L9.28346 9.29267M5.14961 8.67235L2.77981 34.9383M14.4016 52L5.14961 48.4081L2 43.5814L2.28357 40.4385M14.4016 52V45.1529L14.3228 43.5814M14.4016 52L50.622 49.6428C51.1602 47.4949 51.4619 46.2906 52 44.1427L51.9124 42.0099M12.6299 9.79483L50.622 10.5806M12.6299 9.79483L9.28346 9.29267M12.6299 9.79483L14.3228 43.5814M50.622 10.5806L45.3071 9.45809L47.202 7.29412M50.622 10.5806L51.6912 36.6221M10.0808 2L12.101 5.52941M10.0808 2L49.4747 4.05882L49.7273 7.29412H47.202M12.101 5.52941L9.28346 9.29267M12.101 5.52941L47.202 7.29412M51.6912 36.6221L14.4016 37.2955L2.77981 34.9383M51.6912 36.6221L51.9124 42.0099M14.3228 43.5814L51.9124 42.0099M14.3228 43.5814L2.28357 40.4385M2.77981 34.9383L2.28357 40.4385" stroke="white" stroke-width="2"/>
</svg>
