<svg width="62" height="52" viewBox="0 0 62 52" fill="none" xmlns="http://www.w3.org/2000/svg">
<path d="M36.4364 32.9527L37.1795 31.7677C37.6406 31.0323 38.4476 30.5859 39.3156 30.5859V30.5859M25.954 39.4616V39.4616C26.5566 38.6929 27.3895 38.1373 28.3307 37.8763L29.0152 37.6865M21.8724 33.1007L21.8866 33.0755C22.3937 32.1771 23.3454 31.6214 24.377 31.6214V31.6214M17.698 27.4794V27.4794C18.1705 26.7258 18.9398 26.2074 19.8156 26.0522L20.1099 26.0001M13.9875 22.5977L14.325 21.9697C14.7782 21.1265 15.7562 20.7112 16.6776 20.9705V20.9705M11.1118 18.1598L11.239 17.9569C11.692 17.2345 12.4139 16.722 13.2453 16.5326V16.5326M8.05055 14.3137L8.51837 13.7275C9.02638 13.091 9.8539 12.8014 10.6479 12.9823V12.9823M5.73145 10.1717V10.1717C6.25939 9.51686 7.05533 9.13617 7.89647 9.13617H7.95779M30.3139 27.1835L30.3363 27.1555C31.1499 26.136 32.3525 25.5027 33.6535 25.4084V25.4084M24.9336 21.7101L25.0259 21.5969C25.7306 20.7325 26.7868 20.2308 27.9021 20.2308V20.2308M20.2954 17.2723L20.3926 17.156C21.0434 16.3776 21.9754 15.8877 22.9856 15.793V15.793M16.0283 13.4261V13.4261C16.4418 12.6725 17.1544 12.1286 17.9905 11.9286L18.5329 11.7989M12.596 9.57996V9.57996C12.8314 9.01687 13.3021 8.58552 13.8836 8.40007L14.8223 8.10067M8.79266 5.73381V5.73381C9.15913 5.1494 9.65095 4.65379 10.2325 4.28283L10.2769 4.25452M24.1915 16.8285L38.4772 25.9907M49.7017 33.5444L51.3485 34.5428C53.3375 35.7486 52.1094 38.811 49.8384 38.3084V38.3084C49.7476 38.2883 49.6601 38.2561 49.578 38.2124L48.5885 37.6865L48.4957 37.6216M49.7017 33.5444V33.5444C48.0398 33.7483 47.1737 35.63 48.0997 37.025L48.4957 37.6216M49.7017 33.5444L46.0839 31.1958M24.9336 17.3044L41.8167 32.9527L48.4957 37.6216M46.0839 31.1958C45.6854 32.113 45.4619 32.6272 45.0634 33.5444M46.0839 31.1958L38.4772 25.9907M42.6516 28.9586C42.6516 28.9586 42.1427 30.1307 41.8167 30.8817M38.4772 25.9907L37.6423 27.7752M34.5811 23.7811L33.839 24.9646" stroke="white" stroke-width="2"/>
<path d="M28.8292 49.3728L2.11317 9.43195L1.83895 8.01075C1.49241 6.21474 3.34121 4.79144 4.98886 5.5858V5.5858L33.5 43.5M28.8292 49.3728L28.7696 49.1969C27.7297 46.1283 30.2925 43.0418 33.5 43.5V43.5M28.8292 49.3728L29.082 49.6341C29.7258 50.2995 30.6017 50.6906 31.527 50.7257V50.7257C34.4935 50.8383 36.3079 47.5074 34.6044 45.0762L33.5 43.5" stroke="white" stroke-width="2"/>
<path d="M46 37L6.75174 1H6.45135C4.46537 1 3.36747 3.30347 4.61816 4.84615V4.84615L42 44.1952M46 37V37C48.1109 40.0376 45.9372 44.1952 42.2382 44.1952H42M46 37V37C42.3408 36.3122 39.6017 40.2915 41.5507 43.464L42 44.1952" stroke="white" stroke-width="2"/>
</svg>
