<svg width="220" height="220" viewBox="0 0 220 220" fill="none" xmlns="http://www.w3.org/2000/svg">
<path d="M110 10C165.228 10 210 54.7715 210 110C210 165.228 165.228 210 110 210C54.7715 210 10 165.228 10 110C10 54.7715 54.7715 10 110 10Z" stroke="#6BBF54" stroke-width="20"/>
<path d="M175.5 185L172.226 137.349C171.536 127.299 163.182 119.5 153.109 119.5H135.866C131.687 119.5 128.681 115.483 129.861 111.474V111.474C129.953 111.158 130.071 110.851 130.212 110.554L136.708 96.8774C146.642 75.9641 130.88 51.9619 107.741 52.7677V52.7677C84.8462 53.5651 70.7605 78.1382 81.6426 98.297L87.7659 109.64C88.2477 110.533 88.5 111.531 88.5 112.545V112.545C88.5 115.859 85.8603 118.57 82.5474 118.659L68.2675 119.04C58.2583 119.306 49.8617 126.671 48.2921 136.56L41 182.5" stroke="#6BBF54" stroke-width="20"/>
</svg>
