<svg width="118" height="89" viewBox="0 0 118 89" fill="none" xmlns="http://www.w3.org/2000/svg">
<path d="M28.9784 26.8259L54.4762 30.2785M28.9784 26.8259L88.5281 2L110.736 5.12379M28.9784 26.8259V40.472M54.4762 30.2785V55.9265M54.4762 30.2785L110.736 5.12379M54.4762 55.9265L37.1741 52.8027M54.4762 55.9265L105.307 29.0845M110.736 5.12379L109.584 26.8259L105.307 29.0845M2 52.8027L28.9784 40.472M2 52.8027L26.1818 58.8859M2 52.8027V78.2863L26.1818 84.3694M28.9784 40.472V51.323L37.1741 52.8027M26.1818 58.8859V84.3694M26.1818 58.8859L33.5844 54.7892M37.1741 52.8027L33.5844 54.7892M26.1818 84.3694L33.5844 80.2592M33.5844 80.2592V54.7892M33.5844 80.2592L60.0693 87M33.5844 54.7892L60.8918 60.53M60.8918 60.53L60.0693 87M60.8918 60.53L116 31.4294M60.0693 87L116 52.8027V31.4294M116 31.4294L105.307 29.0845" stroke="#FFDAD1" stroke-width="3"/>
</svg>
