<svg width="126" height="88" viewBox="0 0 126 88" fill="none" xmlns="http://www.w3.org/2000/svg">
<path d="M2 32.723V74.723L82.8305 86M2 32.723L82.8305 40.7146M2 32.723L18.4145 25.4419L27.7309 26.3176M82.8305 86V40.7146M82.8305 86L95.8735 76.2326V74.723M82.8305 40.7146L95.8735 32.723M95.8735 32.723L27.7309 26.3176M95.8735 32.723V74.723M27.7309 9.99154V26.3176M27.7309 9.99154L104.746 16.5624M27.7309 9.99154L47.0735 2L124 7.68288M104.746 16.5624V76.2326M104.746 16.5624L124 7.68288M104.746 76.2326L95.8735 74.723M104.746 76.2326L124 66.2875V7.68288" stroke="#FFDAD1" stroke-width="3"/>
</svg>
