<svg width="132" height="90" viewBox="0 0 132 90" fill="none" xmlns="http://www.w3.org/2000/svg">
<path d="M80.7127 7.83044L66.8652 10.7457L79.2551 19.4915L94.1957 15.8474L80.7127 7.83044Z" stroke="#FFDAD1" stroke-width="3"/>
<path d="M2 20.2203V41.3559L12.9322 49.4289M2 20.2203L25.6864 35.5254M2 20.2203L90.9153 2L118.975 13.661M25.6864 58.8475V35.5254M25.6864 58.8475L23.7126 57.3898M25.6864 58.8475L42.8136 54.5657M25.6864 35.5254L118.975 13.661M118.975 13.661V30.7881M12.9322 49.4289V70.1441L23.1356 88M12.9322 49.4289L23.7126 57.3898M23.1356 88L23.7126 57.3898M23.1356 88L130.271 72.3305V43.5424L42.8136 54.5657M42.8136 54.5657L118.975 35.5254V30.7881M118.975 30.7881L130.636 43.5424" stroke="#FFDAD1" stroke-width="3"/>
<path d="M38.4412 16.2119L24.5938 19.1272L36.9836 27.8729L51.9243 24.2289L38.4412 16.2119Z" stroke="#FFDAD1" stroke-width="3"/>
<path d="M59.576 12.2034L45.7285 15.1186L58.1183 23.8644L73.059 20.2203L59.576 12.2034Z" stroke="#FFDAD1" stroke-width="3"/>
</svg>
