<svg width="103" height="89" viewBox="0 0 103 89" fill="none" xmlns="http://www.w3.org/2000/svg">
<path d="M8.23622 13.343L18 2M8.23622 13.343L16.4213 14.3975M8.23622 13.343L3.54402 57.9952M26.5551 87L8.23622 80.8937L2 72.6884L2.56146 67.3454M26.5551 87V75.3599L26.3992 72.6884M26.5551 87L98.2717 82.9928C99.3371 79.3413 99.9345 77.294 101 73.6425L100.827 70.0169M23.0472 15.2512L98.2717 16.587M23.0472 15.2512L16.4213 14.3975M23.0472 15.2512L26.3992 72.6884M98.2717 16.587L87.748 14.6787L91.5 11M98.2717 16.587L100.389 60.8575M18 2L22 8M18 2L96 5.5L96.5 11H91.5M22 8L16.4213 14.3975M22 8L91.5 11M100.389 60.8575L26.5551 62.0024L3.54402 57.9952M100.389 60.8575L100.827 70.0169M26.3992 72.6884L100.827 70.0169M26.3992 72.6884L2.56146 67.3454M3.54402 57.9952L2.56146 67.3454" stroke="#FFDAD1" stroke-width="3"/>
</svg>
