<svg width="102" height="65" viewBox="0 0 102 65" fill="none" xmlns="http://www.w3.org/2000/svg">
<path d="M2 21.6429L2.53571 32.7143L14.1429 38.4286L16.4643 37.3571L18.4286 40.3929L26.4643 43.6071M2 21.6429L26.4643 32M2 21.6429L74.8571 2L99.5 7.35714M26.4643 43.6071V32M26.4643 43.6071L98.9643 16.6429L99.5 7.35714M26.4643 32L99.5 7.35714" stroke="#FFDAD1" stroke-width="3"/>
<path d="M9.67857 38.5357L7 40.3214M7 40.3214V51.0357L52.8929 63.1786M7 40.3214L52.8929 52.1071M52.8929 63.1786L97.1786 26.0357V18L52.8929 52.1071M52.8929 63.1786V52.1071" stroke="#FFDAD1" stroke-width="3"/>
</svg>
