<svg width="178" height="111" viewBox="0 0 178 111" fill="none" xmlns="http://www.w3.org/2000/svg">
<path d="M2 36.9356L2.95604 56.6266L23.6703 66.7897L27.8132 64.8841L31.3187 70.2833L45.6593 76M2 36.9356L45.6593 55.3562M2 36.9356L132.022 2L176 11.5279M45.6593 76V55.3562M45.6593 76L175.044 28.0429L176 11.5279M45.6593 55.3562L176 11.5279" stroke="#C8E9BD" stroke-width="3"/>
<path d="M16.7525 64.8182L12 68.0198M12 68.0198V87.2292L93.4257 109M12 68.0198L93.4257 89.1502M93.4257 109L172 42.4071V28L93.4257 89.1502M93.4257 109V89.1502" stroke="#C8E9BD" stroke-width="3"/>
</svg>
