<svg width="122" height="80" viewBox="0 0 122 80" fill="none" xmlns="http://www.w3.org/2000/svg">
<path d="M85.8938 50.5682L87.1004 49.3616C88.6314 47.8306 90.7078 46.9706 92.8728 46.9706V46.9706M60.4855 60.4617V60.4617C61.9606 59.2816 63.7099 58.4932 65.571 58.1695L67.9056 57.7635M50.592 50.7931V50.7931C51.8802 49.3618 53.7152 48.5445 55.6408 48.5445H56.663M40.4737 42.2487V42.2487C41.6381 41.0842 43.1642 40.3508 44.8009 40.1689L46.3198 40.0002M31.4796 34.8286L31.6518 34.6277C33.2174 32.8011 35.6312 31.9371 38.0003 32.3552V32.3552M24.5092 28.083V28.083C25.8228 26.7694 27.527 25.9173 29.366 25.6546L29.6808 25.6096M17.0891 22.2368L17.7366 21.7281C19.3336 20.4732 21.3743 19.9259 23.3849 20.2132V20.2132M11.4678 15.941V15.941C12.7794 14.9209 14.3936 14.367 16.0552 14.367H16.8642M71.0536 41.799V41.799C73.1009 40.1904 75.5998 39.262 78.2008 39.1438L79.1482 39.1007M58.0122 33.4794V33.4794C59.9076 32.0214 62.2318 31.2309 64.6231 31.2309H65.2074M46.7695 26.7339V26.7339C48.5294 25.414 50.6388 24.6413 52.8347 24.5122L53.2903 24.4854M36.4264 20.8877V20.8877C37.4426 19.7263 38.8379 18.9633 40.3641 18.7343L42.4974 18.4144M28.1068 15.0416V15.0416C28.6827 14.1778 29.5782 13.5781 30.5962 13.3745L33.5033 12.7931M18.8879 9.19542V9.19542C19.778 8.30529 20.8397 7.60524 22.0085 7.13772L22.4855 6.9469M56.2133 26.0593L90.8406 39.9859M117.598 51.4676L117.729 51.5991C119 52.8693 119.337 54.7998 118.572 56.4251V56.4251C118.247 57.1141 117.58 57.5776 116.821 57.6408L115.349 57.7635L115.125 57.6649M117.598 51.4676L117.294 51.4922C114.204 51.7428 112.871 55.5356 115.125 57.6649V57.6649M117.598 51.4676L109.278 47.8977M58.0122 26.7828L98.9352 50.5682L115.125 57.6649M109.278 47.8977C108.313 49.2918 107.771 50.0735 106.805 51.4676M109.278 47.8977L90.8406 39.9859M100.959 44.4972C100.959 44.4972 99.7255 46.2787 98.9352 47.4203M90.8406 39.9859L88.8169 42.6984M81.3968 36.6274L79.598 38.4262" stroke="#FFDAD1" stroke-width="3"/>
<path d="M67.4556 75.5267L2.69822 14.8166V14.8166C1.54787 11.0779 5.03811 7.57051 8.78237 8.7025L9.66864 8.97044L77.574 66.0829M67.4556 75.5267L66.9722 71.9033C66.1888 66.0314 73.0404 62.2699 77.574 66.0829V66.0829M67.4556 75.5267L68.8875 76.4548C69.9418 77.1382 71.165 77.5158 72.4211 77.5457L73.1797 77.5638C79.3162 77.7098 82.2398 70.0714 77.574 66.0829V66.0829" stroke="#FFDAD1" stroke-width="3"/>
<path d="M99.8346 51.0177L13.9411 2L13.0711 2.27683C10.6181 3.05734 8.90483 5.27549 8.76953 7.84615V7.84615L94.663 66.9822M99.8346 51.0177L100.257 51.3469C106.91 56.5289 103.093 67.1966 94.663 66.9822V66.9822M99.8346 51.0177V51.0177C93.1944 52.4491 90.0851 60.1219 93.8555 65.7721L94.663 66.9822" stroke="#FFDAD1" stroke-width="3"/>
</svg>
