<svg width="117" height="81" viewBox="0 0 117 81" fill="none" xmlns="http://www.w3.org/2000/svg">
<path d="M70.5838 67.6204L73.3523 65.3393C77.6299 61.8146 83.5775 61.1275 88.5462 63.5839V63.5839M70.5838 67.6204L86.9133 5.34307M70.5838 67.6204L63.3988 63.5839M45.763 67.6204L49.6919 64.5854C53.6459 61.5311 59.0429 61.1368 63.3988 63.5839V63.5839M45.763 67.6204L70.5838 6.49635M45.763 67.6204L38.9046 63.5839M22.9017 67.6204L26.0804 64.8142C29.6388 61.6728 34.8139 61.1763 38.9046 63.5839V63.5839M22.9017 67.6204L57.5202 7.64964M22.9017 67.6204L16.3699 63.5839M57.5202 7.64964V7.64964C60.5634 4.2914 65.5465 3.53161 69.4522 5.83032L70.5838 6.49635M57.5202 7.64964L56.3654 7.00086C52.8487 5.02517 48.4295 5.77629 45.763 8.80292V8.80292L2 67.6204L4.48943 65.0564C7.61352 61.8387 12.5548 61.2263 16.3699 63.5839V63.5839M70.5838 6.49635V6.49635C74.1335 3.01438 79.4469 2.0473 83.9958 4.05525L86.9133 5.34307M86.9133 5.34307V5.34307C92.5936 1.40296 99.9148 0.702533 106.239 3.49415L106.509 3.61314L105.714 8.80292M84.3006 76.8467L92.5111 74.6407C96.9197 73.4561 101.601 73.8154 105.777 75.6589L111.081 78L115 8.80292V8.80292C112.2 7.03721 108.641 7.01294 105.817 8.74032L105.714 8.80292M84.3006 76.8467L76.5706 73.922C72.6767 72.4488 68.4201 72.2274 64.3944 73.2888L57.4609 75.1168M84.3006 76.8467L88.5462 63.5839M32.0462 75.1168L36.8428 73.3338C41.7251 71.519 47.1227 71.6805 51.8877 73.7838L56.2139 75.6934L57.4609 75.1168M32.0462 75.1168L28.6295 73.165C23.7337 70.3684 17.8849 69.7681 12.5232 71.512L8.5318 72.8102L16.3699 63.5839M32.0462 75.1168L38.9046 63.5839M105.714 8.80292L96.711 67.6204L88.5462 63.5839M57.4609 75.1168L63.3988 63.5839" stroke="#FFDAD1" stroke-width="3"/>
</svg>
