<svg width="52" height="54" viewBox="0 0 52 54" fill="none" xmlns="http://www.w3.org/2000/svg">
<path d="M12.8326 16.6035L24.0159 18.6344M12.8326 16.6035L38.9509 2L48.6912 3.83752M12.8326 16.6035V24.6306M24.0159 18.6344V33.7215M24.0159 18.6344L48.6912 3.83752M24.0159 33.7215L16.4272 31.8839M24.0159 33.7215L46.3102 17.932M48.6912 3.83752L48.1861 16.6035L46.3102 17.932M1 31.8839L12.8326 24.6306M1 31.8839L11.6061 35.4623M1 31.8839V46.8743L11.6061 50.4526M12.8326 24.6306V31.0135L16.4272 31.8839M11.6061 35.4623V50.4526M11.6061 35.4623L14.8528 33.0525M16.4272 31.8839L14.8528 33.0525M11.6061 50.4526L14.8528 48.0348M14.8528 48.0348V33.0525M14.8528 48.0348L26.469 52M14.8528 33.0525L26.8297 36.4294M26.8297 36.4294L26.469 52M26.8297 36.4294L51 19.3114M26.469 52L51 31.8839V19.3114M51 19.3114L46.3102 17.932" stroke="white" stroke-width="2"/>
</svg>
