<svg width="52" height="54" viewBox="0 0 52 54" fill="none" xmlns="http://www.w3.org/2000/svg">
<path d="M1 20.2875V45.2875L34.1273 52M1 20.2875L34.1273 25.0444M1 20.2875L7.72727 15.9535L11.5455 16.4748M34.1273 52V25.0444M34.1273 52L39.4727 46.186V45.2875M34.1273 25.0444L39.4727 20.2875M39.4727 20.2875L11.5455 16.4748M39.4727 20.2875V45.2875M11.5455 6.75687V16.4748M11.5455 6.75687L43.1091 10.6681M11.5455 6.75687L19.4727 2L51 5.38266M43.1091 10.6681V46.186M43.1091 10.6681L51 5.38266M43.1091 46.186L39.4727 45.2875M43.1091 46.186L51 40.2664V5.38266" stroke="#FF594B" stroke-width="2"/>
</svg>
